<svg width="226" height="70" viewBox="0 0 226 70" fill="none" xmlns="http://www.w3.org/2000/svg">
<path d="M70.0419 39.1372C72.77 39.1372 75.0224 39.8071 76.7989 41.1469C78.5754 42.4658 79.802 44.2766 80.4787 46.5794H77.4333C76.8623 45.114 75.9423 43.9521 74.6734 43.0938C73.4045 42.2146 71.8501 41.7749 70.0101 41.7749C68.5509 41.7749 67.2396 42.1308 66.0765 42.8426C64.9344 43.5335 64.025 44.5383 63.3483 45.8572C62.6927 47.1551 62.3649 48.6834 62.3649 50.4419C62.3649 52.1794 62.6927 53.6972 63.3483 54.9951C64.025 56.2931 64.9344 57.2979 66.0765 58.0097C67.2396 58.7006 68.5509 59.046 70.0101 59.046C71.8501 59.046 73.4045 58.6168 74.6734 57.7585C75.9423 56.8792 76.8623 55.7069 77.4333 54.2415H80.4787C79.802 56.5443 78.5754 58.3656 76.7989 59.7054C75.0224 61.0243 72.77 61.6837 70.0419 61.6837C67.9481 61.6837 66.0976 61.2127 64.4903 60.2706C62.883 59.3077 61.6247 57.9783 60.7153 56.2826C59.827 54.566 59.3829 52.6191 59.3829 50.4419C59.3829 48.2437 59.827 46.2863 60.7153 44.5697C61.6247 42.8531 62.883 41.5237 64.4903 40.5817C66.0976 39.6187 67.9481 39.1372 70.0419 39.1372Z" fill="#9085DE"/>
<path d="M100.564 44.0359C102.256 44.0359 103.684 44.4546 104.847 45.292C106.031 46.1293 106.856 47.2493 107.321 48.652V44.2557H110.208V61.4953H107.321V57.0991C106.856 58.5017 106.031 59.6217 104.847 60.4591C103.684 61.2964 102.256 61.7151 100.564 61.7151C99.0204 61.7151 97.6458 61.3592 96.4403 60.6475C95.2348 59.9357 94.2831 58.9204 93.5852 57.6015C92.9085 56.2617 92.5701 54.6916 92.5701 52.8912C92.5701 51.0908 92.9085 49.5207 93.5852 48.1809C94.2831 46.8411 95.2348 45.8153 96.4403 45.1035C97.6458 44.3918 99.0204 44.0359 100.564 44.0359ZM101.389 46.5794C99.6126 46.5794 98.1851 47.1447 97.1065 48.2751C96.0491 49.3847 95.5203 50.9234 95.5203 52.8912C95.5203 54.8591 96.0491 56.4082 97.1065 57.5387C98.1851 58.6482 99.6126 59.203 101.389 59.203C102.531 59.203 103.546 58.9413 104.435 58.4179C105.344 57.8946 106.052 57.1619 106.56 56.2198C107.068 55.2568 107.321 54.1473 107.321 52.8912C107.321 51.6351 107.068 50.5256 106.56 49.5626C106.052 48.5996 105.344 47.8669 104.435 47.3645C103.546 46.8411 102.531 46.5794 101.389 46.5794Z" fill="#9085DE"/>
<path d="M133.058 43.9731C135.088 43.9731 136.727 44.6221 137.975 45.92C139.223 47.197 139.847 49.0497 139.847 51.4781V61.4953H136.96V51.7293C136.96 50.0127 136.516 48.6938 135.627 47.7727C134.739 46.8516 133.534 46.391 132.011 46.391C130.425 46.391 129.156 46.9039 128.204 47.9297C127.252 48.9346 126.777 50.4105 126.777 52.3574V61.4953H123.89V44.2557H126.777V48.3379C127.221 46.9353 128.003 45.8572 129.124 45.1035C130.266 44.3499 131.577 43.9731 133.058 43.9731Z" fill="#9085DE"/>
<path d="M160.119 58.4493L165.512 44.2557H168.62L161.8 61.4953H158.374L151.553 44.2557H154.662L160.119 58.4493Z" fill="#9085DE"/>
<path d="M187.679 44.0359C189.371 44.0359 190.798 44.4546 191.961 45.292C193.146 46.1293 193.971 47.2493 194.436 48.652V44.2557H197.323V61.4953H194.436V57.0991C193.971 58.5017 193.146 59.6217 191.961 60.4591C190.798 61.2964 189.371 61.7151 187.679 61.7151C186.135 61.7151 184.76 61.3592 183.555 60.6475C182.349 59.9357 181.398 58.9204 180.7 57.6015C180.023 56.2617 179.685 54.6916 179.685 52.8912C179.685 51.0908 180.023 49.5207 180.7 48.1809C181.398 46.8411 182.349 45.8153 183.555 45.1035C184.76 44.3918 186.135 44.0359 187.679 44.0359ZM188.504 46.5794C186.727 46.5794 185.3 47.1447 184.221 48.2751C183.164 49.3847 182.635 50.9234 182.635 52.8912C182.635 54.8591 183.164 56.4082 184.221 57.5387C185.3 58.6482 186.727 59.203 188.504 59.203C189.646 59.203 190.661 58.9413 191.549 58.4179C192.458 57.8946 193.167 57.1619 193.674 56.2198C194.182 55.2568 194.436 54.1473 194.436 52.8912C194.436 51.6351 194.182 50.5256 193.674 49.5626C193.167 48.5996 192.458 47.8669 191.549 47.3645C190.661 46.8411 189.646 46.5794 188.504 46.5794Z" fill="#9085DE"/>
<path d="M216.461 44.0359C218.428 44.0359 220.003 44.5488 221.187 45.5746C222.393 46.5794 223.123 47.9402 223.376 49.6568H220.616C220.49 48.631 220.056 47.7936 219.316 47.1447C218.597 46.4748 217.624 46.1398 216.397 46.1398C215.361 46.1398 214.547 46.391 213.955 46.8935C213.384 47.3749 213.098 48.0344 213.098 48.8718C213.098 49.4998 213.288 50.0127 213.669 50.4105C214.071 50.7873 214.557 51.0804 215.128 51.2897C215.72 51.4781 216.524 51.6875 217.539 51.9178C218.829 52.2108 219.866 52.5144 220.648 52.8284C221.452 53.1215 222.129 53.603 222.678 54.2729C223.249 54.9428 223.535 55.843 223.535 56.9735C223.535 58.3761 222.996 59.517 221.917 60.3963C220.86 61.2755 219.443 61.7151 217.666 61.7151C215.594 61.7151 213.902 61.2232 212.59 60.2392C211.279 59.2553 210.507 57.8841 210.275 56.1256H213.066C213.172 57.1723 213.627 58.0202 214.43 58.6692C215.255 59.3181 216.334 59.6426 217.666 59.6426C218.66 59.6426 219.432 59.3914 219.982 58.889C220.553 58.3865 220.838 57.7271 220.838 56.9106C220.838 56.2407 220.638 55.7069 220.236 55.3092C219.834 54.9114 219.337 54.6078 218.745 54.3985C218.153 54.1892 217.338 53.9693 216.302 53.7391C215.012 53.446 213.976 53.1529 213.193 52.8598C212.432 52.5667 211.776 52.1062 211.226 51.4781C210.698 50.8292 210.433 49.9604 210.433 48.8718C210.433 47.4273 210.973 46.2654 212.051 45.3862C213.13 44.486 214.6 44.0359 216.461 44.0359Z" fill="#9085DE"/>
<path d="M73.5948 26.6968H65.1882L63.7924 30.7477H58.0823L66.2985 8.70354H72.548L80.7643 30.7477H74.9907L73.5948 26.6968ZM72.199 22.6146L69.4074 14.4501L66.5841 22.6146H72.199Z" fill="#0049C6"/>
<path d="M88.1323 16.5226C88.809 15.4549 89.6761 14.6071 90.7336 13.9791C91.8121 13.351 92.9753 13.037 94.2231 13.037V18.7835H92.6687C91.2306 18.7835 90.1097 19.0871 89.306 19.6942C88.5235 20.3013 88.1323 21.3271 88.1323 22.7716V30.7477H82.7076V13.2254H88.1323V16.5226Z" fill="#0049C6"/>
<path d="M107.344 26.1316V30.7477H104.901C102.829 30.7477 101.211 30.2452 100.048 29.2404C98.9058 28.2146 98.3348 26.5293 98.3348 24.1847V17.7473H95.9556V13.2254H98.3348V8.92336H103.759V13.2254H107.312V17.7473H103.759V24.2789C103.759 24.9697 103.897 25.4512 104.172 25.7234C104.468 25.9955 104.954 26.1316 105.631 26.1316H107.344Z" fill="#0049C6"/>
<path d="M125.669 8.32672C128.524 8.32672 130.882 9.0699 132.743 10.5563C134.625 12.0426 135.841 14.0523 136.391 16.5854H130.649C130.226 15.5596 129.571 14.7536 128.682 14.1675C127.815 13.5813 126.779 13.2882 125.573 13.2882C123.987 13.2882 122.708 13.8639 121.735 15.0153C120.762 16.1667 120.276 17.7054 120.276 19.6314C120.276 21.5574 120.762 23.0961 121.735 24.2475C122.708 25.3779 123.987 25.9432 125.573 25.9432C126.779 25.9432 127.815 25.6501 128.682 25.0639C129.571 24.4778 130.226 23.6822 130.649 22.6774H136.391C135.841 25.1895 134.625 27.1992 132.743 28.7065C130.882 30.1929 128.524 30.9361 125.669 30.9361C123.49 30.9361 121.576 30.465 119.927 29.523C118.277 28.56 116.998 27.2202 116.088 25.5035C115.2 23.7869 114.756 21.8295 114.756 19.6314C114.756 17.4333 115.2 15.4759 116.088 13.7592C116.998 12.0426 118.277 10.7133 119.927 9.77121C121.576 8.80822 123.49 8.32672 125.669 8.32672Z" fill="#0049C6"/>
<path d="M156.079 21.5155C156.079 21.9551 156.026 22.4366 155.921 22.96H143.644C143.707 24.2789 144.046 25.2314 144.659 25.8176C145.272 26.3828 146.055 26.6654 147.006 26.6654C147.81 26.6654 148.476 26.4665 149.005 26.0688C149.534 25.671 149.883 25.1581 150.052 24.5301H155.794C155.561 25.7652 155.053 26.8748 154.271 27.8587C153.488 28.8217 152.494 29.5858 151.289 30.151C150.084 30.6953 148.741 30.9675 147.26 30.9675C145.526 30.9675 143.982 30.6116 142.629 29.8998C141.296 29.1671 140.249 28.1204 139.488 26.7596C138.727 25.3989 138.346 23.8078 138.346 21.9865C138.346 20.1443 138.716 18.5533 139.456 17.2135C140.218 15.8527 141.275 14.8164 142.629 14.1047C143.982 13.372 145.526 13.0056 147.26 13.0056C149.015 13.0056 150.559 13.3615 151.892 14.0733C153.224 14.785 154.25 15.7899 154.969 17.0878C155.709 18.3649 156.079 19.8407 156.079 21.5155ZM150.591 20.6991C150.612 19.5477 150.295 18.6893 149.639 18.1241C149.005 17.5379 148.212 17.2449 147.26 17.2449C146.266 17.2449 145.441 17.5379 144.786 18.1241C144.13 18.7103 143.76 19.5686 143.675 20.6991H150.591Z" fill="#0049C6"/>
<path d="M169.972 13.037C172.002 13.037 173.609 13.7069 174.794 15.0467C175.999 16.3865 176.602 18.2288 176.602 20.5735V30.7477H171.177V21.2015C171.177 20.0292 170.86 19.1185 170.226 18.4695C169.612 17.7996 168.787 17.4647 167.751 17.4647C166.651 17.4647 165.774 17.8101 165.118 18.5009C164.484 19.1918 164.166 20.1757 164.166 21.4527V30.7477H158.742V13.2254H164.166V16.4284C164.674 15.3817 165.425 14.5548 166.419 13.9477C167.434 13.3406 168.618 13.037 169.972 13.037Z" fill="#0049C6"/>
<path d="M190.039 26.1316V30.7477H187.596C185.524 30.7477 183.906 30.2452 182.743 29.2404C181.601 28.2146 181.03 26.5293 181.03 24.1847V17.7473H178.65V13.2254H181.03V8.92336H186.454V13.2254H190.007V17.7473H186.454V24.2789C186.454 24.9697 186.592 25.4512 186.867 25.7234C187.163 25.9955 187.649 26.1316 188.326 26.1316H190.039Z" fill="#0049C6"/>
<path d="M209.736 21.5155C209.736 21.9551 209.683 22.4366 209.577 22.96H197.3C197.364 24.2789 197.702 25.2314 198.315 25.8176C198.929 26.3828 199.711 26.6654 200.663 26.6654C201.467 26.6654 202.133 26.4665 202.661 26.0688C203.19 25.671 203.539 25.1581 203.708 24.5301H209.45C209.218 25.7652 208.71 26.8748 207.928 27.8587C207.145 28.8217 206.151 29.5858 204.946 30.151C203.74 30.6953 202.397 30.9675 200.917 30.9675C199.183 30.9675 197.639 30.6116 196.285 29.8998C194.953 29.1671 193.906 28.1204 193.145 26.7596C192.383 25.3989 192.003 23.8078 192.003 21.9865C192.003 20.1443 192.373 18.5533 193.113 17.2135C193.874 15.8527 194.932 14.8164 196.285 14.1047C197.639 13.372 199.183 13.0056 200.917 13.0056C202.672 13.0056 204.216 13.3615 205.548 14.0733C206.881 14.785 207.906 15.7899 208.625 17.0878C209.366 18.3649 209.736 19.8407 209.736 21.5155ZM204.248 20.6991C204.269 19.5477 203.952 18.6893 203.296 18.1241C202.661 17.5379 201.868 17.2449 200.917 17.2449C199.923 17.2449 199.098 17.5379 198.442 18.1241C197.787 18.7103 197.417 19.5686 197.332 20.6991H204.248Z" fill="#0049C6"/>
<path d="M217.823 16.5226C218.5 15.4549 219.367 14.6071 220.424 13.9791C221.503 13.351 222.666 13.037 223.914 13.037V18.7835H222.359C220.921 18.7835 219.8 19.0871 218.997 19.6942C218.214 20.3013 217.823 21.3271 217.823 22.7716V30.7477H212.398V13.2254H217.823V16.5226Z" fill="#0049C6"/>
<g clip-path="url(#clip0_801_5327)">
<path d="M35.8412 46.8716C33.7049 48.1774 31.2551 48.8951 28.7447 48.9506C26.2344 49.006 23.7545 48.3973 21.5615 47.1872C19.3685 45.9771 17.5418 44.2096 16.2701 42.0673C14.9985 39.9249 14.328 37.4855 14.328 35.001C14.328 32.5165 14.9985 30.077 16.2701 27.9347C17.5418 25.7923 19.3685 24.0248 21.5615 22.8147C23.7545 21.6047 26.2344 20.9959 28.7447 21.0514C31.2551 21.1069 33.7049 21.8246 35.8412 23.1303L46.1043 12.9755C41.9176 9.68421 36.8776 7.62793 31.5632 7.04273C26.2487 6.45753 20.8752 7.36713 16.0596 9.6671C11.244 11.9671 7.18158 15.5641 4.33873 20.0453C1.49588 24.5265 -0.0121155 29.7101 -0.0121155 35.001C-0.0121155 40.2918 1.49588 45.4754 4.33873 49.9566C7.18158 54.4378 11.244 58.0349 16.0596 60.3349C20.8752 62.6348 26.2487 63.5444 31.5632 62.9592C36.8776 62.374 41.9176 60.3177 46.1043 57.0265L35.8412 46.8716Z" fill="url(#paint0_linear_801_5327)"/>
<g style="mix-blend-mode:multiply" opacity="0.15">
<path d="M28.4307 56.2065C32.9925 56.2107 37.4356 54.7683 41.1082 52.091L35.8352 46.8716C33.6989 48.1774 31.2491 48.8951 28.7387 48.9506C26.2283 49.006 23.7485 48.3973 21.5555 47.1872C19.3625 45.9771 17.5358 44.2096 16.2641 42.0673C14.9925 39.9249 14.322 37.4855 14.322 35.001C14.322 32.5165 14.9925 30.077 16.2641 27.9347C17.5358 25.7923 19.3625 24.0248 21.5555 22.8147C23.7485 21.6046 26.2283 20.9959 28.7387 21.0514C31.2491 21.1068 33.6989 21.8245 35.8352 23.1303L41.1082 17.911C38.3785 15.9275 35.2126 14.6124 31.8701 14.0734C28.5275 13.5345 25.1034 13.787 21.8785 14.8104C18.6537 15.8337 15.7198 17.5987 13.3175 19.9607C10.9152 22.3226 9.11289 25.2143 8.05825 28.3986C7.00361 31.5829 6.7267 34.9692 7.25023 38.2799C7.77376 41.5905 9.08282 44.7313 11.0701 47.4447C13.0574 50.1581 15.6663 52.3668 18.6829 53.8898C21.6996 55.4128 25.0381 56.2068 28.4247 56.2065H28.4307Z" fill="#6C5DD3"/>
</g>
<g style="mix-blend-mode:multiply" opacity="0.23">
<path d="M13.2711 11.2074C9.64414 13.4743 6.58014 16.5208 4.30683 20.1205C3.3367 22.811 2.78689 24.9259 2.78689 24.9259L0.709167 35.8909L7.68138 48.821L22.6736 52.7887L24.7852 48.5352L24.5023 48.4031C23.0252 47.9801 21.6281 47.3202 20.3668 46.4498C20.3668 46.4498 -4.38652 31.525 13.2711 11.2074Z" fill="#6C5DD3"/>
</g>
<path d="M35.8411 46.8716C33.6857 48.1902 31.1458 49.0674 28.4307 48.953C7.771 48.0858 -1.03788 23.2505 13.2711 11.2074C10.0041 13.2459 7.19126 15.9217 5.00425 19.0716C2.81724 22.2215 1.30194 25.7793 0.550868 29.5279C-0.200206 33.2766 -0.171303 37.1373 0.635814 40.8745C1.44293 44.6117 3.01132 48.1469 5.24526 51.2644C7.47919 54.3819 10.3318 57.0162 13.6289 59.0066C16.9261 60.9969 20.5986 62.3015 24.4222 62.8407C28.2459 63.3799 32.1405 63.1425 35.8684 62.1428C39.5962 61.1432 43.079 59.4023 46.1042 57.0265L35.8411 46.8716Z" fill="url(#paint1_linear_801_5327)"/>
<g style="mix-blend-mode:multiply" opacity="0.15">
<path d="M41.2177 52.1915C22.6537 64.6091 -6.2212 48.0858 3.18133 22.0659C0.188843 27.7822 -0.731295 34.3412 0.574532 40.6479C1.88036 46.9545 5.33312 52.627 10.3563 56.7184C15.3796 60.8098 21.6692 63.0725 28.1752 63.1285C34.6812 63.1846 41.0098 61.0307 46.1043 57.0265L41.2177 52.1915Z" fill="#6C5DD3"/>
</g>
</g>
<defs>
<linearGradient id="paint0_linear_801_5327" x1="23.0522" y1="2.70037" x2="23.0522" y2="80.2573" gradientUnits="userSpaceOnUse">
<stop offset="0.07" stop-color="#CFC8FF"/>
<stop offset="0.69" stop-color="#0049C6"/>
</linearGradient>
<linearGradient id="paint1_linear_801_5327" x1="23.0521" y1="7.7837" x2="23.0521" y2="85.3406" gradientUnits="userSpaceOnUse">
<stop offset="0.28" stop-color="#9085DE"/>
<stop offset="1" stop-color="#0049C6"/>
</linearGradient>
<clipPath id="clip0_801_5327">
<rect width="53.5326" height="56.2617" fill="white" transform="translate(0 6.86914)"/>
</clipPath>
</defs>
</svg>
