<svg width="52" height="32" viewBox="0 0 52 32" fill="none" xmlns="http://www.w3.org/2000/svg">
<rect x="0.266667" y="0.266667" width="51.4667" height="31.4667" rx="1.86667" fill="white" stroke="#E9E9E9" stroke-width="0.533333"/>
<path fill-rule="evenodd" clip-rule="evenodd" d="M44.2435 18.1954H42.3357C42.1452 18.1954 42.0186 18.2025 41.912 18.2733C41.8016 18.3432 41.7591 18.4469 41.7591 18.5837C41.7591 18.7464 41.8523 18.8571 41.988 18.905C42.0984 18.9428 42.217 18.9539 42.3914 18.9539L42.9588 18.9688C43.5313 18.9828 43.9134 19.0797 44.1464 19.316C44.1888 19.3489 44.2143 19.3858 44.2435 19.4228V18.1954ZM44.2435 21.0392C43.9892 21.4053 43.4937 21.5909 42.823 21.5909H40.8014V20.666H42.8148C43.0145 20.666 43.1543 20.6401 43.2384 20.5592C43.3113 20.4925 43.3622 20.3956 43.3622 20.2779C43.3622 20.1522 43.3113 20.0525 43.2343 19.9926C43.1584 19.9268 43.0478 19.8969 42.8655 19.8969C41.8826 19.864 40.6563 19.9268 40.6563 18.5618C40.6563 17.9362 41.0598 17.2776 42.1583 17.2776H44.2434V16.4194H42.3061C41.7214 16.4194 41.2967 16.5573 40.996 16.7717V16.4194H38.1304C37.6722 16.4194 37.1343 16.5313 36.8799 16.7717V16.4194H31.7628V16.7717C31.3556 16.4824 30.6684 16.4194 30.3513 16.4194H26.976V16.7717C26.6538 16.4644 25.9373 16.4194 25.5006 16.4194H21.7231L20.8587 17.3406L20.0491 16.4194H14.4062V22.4381H19.9429L20.8336 21.5024L21.6726 22.4381L25.0854 22.4411V21.0253H25.421C25.8738 21.0322 26.4078 21.0142 26.879 20.8136V22.438H29.694V20.8693H29.8297C30.0031 20.8693 30.0201 20.8763 30.0201 21.0469V22.4378H38.5714C39.1143 22.4378 39.6818 22.301 39.996 22.0527V22.4378H42.7084C43.2729 22.4378 43.8241 22.3599 44.2435 22.1604V21.0392ZM40.0679 19.316C40.2717 19.5237 40.3809 19.7859 40.3809 20.2299C40.3809 21.1578 39.7922 21.5909 38.7365 21.5909H36.6976V20.666H38.7283C38.9268 20.666 39.0676 20.6401 39.1559 20.5592C39.2279 20.4925 39.2795 20.3956 39.2795 20.2779C39.2795 20.1522 39.2237 20.0525 39.1518 19.9926C39.0717 19.9268 38.9613 19.8969 38.779 19.8969C37.8001 19.864 36.5741 19.9268 36.5741 18.5618C36.5741 17.9362 36.9733 17.2776 38.0707 17.2776H40.1693V18.1957H38.2491C38.0587 18.1957 37.9349 18.2027 37.8297 18.2736C37.715 18.3434 37.6725 18.4471 37.6725 18.584C37.6725 18.7467 37.7698 18.8574 37.9015 18.9052C38.0119 18.9431 38.1306 18.9541 38.3089 18.9541L38.8724 18.9691C39.4407 18.9828 39.8308 19.0795 40.0679 19.316ZM30.622 19.0496C30.482 19.1314 30.3089 19.1384 30.1052 19.1384H28.8335V18.1697H30.1225C30.3089 18.1697 30.4954 18.1736 30.622 18.2476C30.7577 18.3174 30.8388 18.451 30.8388 18.6356C30.8388 18.8202 30.7577 18.9688 30.622 19.0496ZM31.2543 19.5864C31.4873 19.6711 31.6777 19.8229 31.767 19.9485C31.9149 20.1591 31.9363 20.3557 31.9405 20.7359V21.5909H30.8895V21.0513C30.8895 20.7918 30.9149 20.4076 30.7203 20.207C30.5674 20.0525 30.3342 20.0155 29.9523 20.0155H28.8336V21.5909H27.7818V17.2775H30.1986C30.7285 17.2775 31.1145 17.3005 31.4581 17.4811C31.7884 17.6776 31.9962 17.9469 31.9962 18.4389C31.9961 19.1274 31.5298 19.4787 31.2543 19.5864ZM32.5767 17.2775H36.0704V18.1695H33.6191V18.9537H36.0106V19.8338H33.6191V20.692L36.0704 20.6959V21.5909H32.5767V17.2775ZM25.514 19.2681H24.1612V18.1697H25.5261C25.904 18.1697 26.1664 18.3213 26.1664 18.6985C26.1664 19.0716 25.9162 19.2681 25.514 19.2681ZM23.1185 21.1986L21.5114 19.4416L23.1185 17.7404V21.1986ZM18.968 20.692H16.3943V19.8338H18.6925V18.9537H16.3943V18.1695H19.0187L20.1637 19.4266L18.968 20.692ZM27.2902 18.6985C27.2902 19.8968 26.3823 20.1442 25.4673 20.1442H24.1612V21.5909H22.1265L20.8375 20.163L19.498 21.5909H15.3515V17.2775H19.5618L20.8497 18.6914L22.1812 17.2775H25.5261C26.3568 17.2775 27.2902 17.504 27.2902 18.6985Z" fill="#0072CE"/>
<path fill-rule="evenodd" clip-rule="evenodd" d="M10.3572 12.3067L9.6407 10.5875L8.92832 12.3067H10.3572ZM26.1412 11.6221C25.9973 11.7081 25.8272 11.7109 25.6234 11.7109H24.3517V10.7531H25.6407C25.8231 10.7531 26.0134 10.7612 26.1371 10.8309C26.2729 10.8937 26.3569 11.0274 26.3569 11.2121C26.3569 11.4006 26.277 11.5523 26.1412 11.6221ZM35.2132 12.3067L34.4888 10.5875L33.7683 12.3067H35.2132ZM18.3024 14.1675H17.2293L17.2253 10.79L15.7074 14.1675H14.7883L13.2664 10.7871V14.1675H11.1373L10.7351 13.2056H8.55555L8.14922 14.1675H7.01228L8.88684 9.85509H10.4421L12.2225 13.938V9.85509H13.931L15.301 12.7805L16.5594 9.85509H18.3023V14.1675H18.3024ZM22.5795 14.1675H19.0826V9.85509H22.5795V10.7531H20.1294V11.5304H22.5207V12.4144H20.1294V13.2756H22.5795V14.1675ZM27.5101 11.0165C27.5101 11.7041 27.044 12.0593 26.7724 12.1659C27.0015 12.2518 27.1971 12.4034 27.2903 12.5291C27.4381 12.7436 27.4636 12.9352 27.4636 13.3203V14.1675H26.4077L26.4038 13.6236C26.4038 13.3642 26.429 12.991 26.2385 12.7835C26.0856 12.6319 25.8524 12.5989 25.4755 12.5989H24.3518V14.1675H23.3051V9.85509H25.7128C26.2478 9.85509 26.6419 9.86901 26.9804 10.0616C27.3115 10.2543 27.5101 10.5355 27.5101 11.0165ZM29.1853 14.1675H28.1172V9.85509H29.1853V14.1675ZM41.5768 14.1675H40.0934L38.1092 10.9308V14.1675H35.9773L35.5699 13.2056H33.3954L33.0002 14.1675H31.7753C31.2664 14.1675 30.6222 14.0567 30.2574 13.6905C29.8895 13.3244 29.6981 12.8284 29.6981 12.0442C29.6981 11.4046 29.8125 10.82 30.2624 10.3579C30.6008 10.0138 31.1308 9.85509 31.8521 9.85509H32.8656V10.7791H31.8734C31.4914 10.7791 31.2757 10.835 31.0679 11.0346C30.8894 11.2162 30.767 11.5594 30.767 12.0114C30.767 12.4734 30.8602 12.8065 31.0548 13.0241C31.216 13.1948 31.5088 13.2466 31.7844 13.2466H32.2545L33.7299 9.85522H35.2984L37.0707 13.9341V9.85522H38.6645L40.5046 12.8586V9.85522H41.5768V14.1675ZM7.00013 15.0145H8.78869L9.19198 14.0567H10.0948L10.4971 15.0145H14.0162V14.2822L14.3303 15.0176H16.1572L16.4713 14.2713V15.0145H25.217L25.2129 13.4422H25.3822C25.5006 13.4462 25.5352 13.457 25.5352 13.6497V15.0145H30.0586V14.6485C30.4234 14.841 30.9909 15.0145 31.7376 15.0145H33.6406L34.0478 14.0567H34.9507L35.349 15.0145H39.016V14.1047L39.5714 15.0145H42.5099V9H39.6017V9.71032L39.1945 9H36.2103V9.71032L35.8364 9H31.8055C31.1308 9 30.5377 9.09274 30.0586 9.35119V9H27.2769V9.35119C26.972 9.08481 26.5566 9 26.0947 9H15.9322L15.2504 10.5534L14.5501 9H11.3492V9.71032L10.9976 9H8.26771L7 11.8596V15.0145H7.00013Z" fill="#0072CE"/>
</svg>
