<svg width="133" height="133" viewBox="0 0 133 133" fill="none" xmlns="http://www.w3.org/2000/svg">
<path d="M87.8529 89.5003L71.2286 72.8482C70.148 71.7647 68.3936 71.7626 67.3102 72.8432C66.7891 73.363 66.4964 74.0685 66.4961 74.8044V113.622C66.4969 114.814 67.2603 115.872 68.3913 116.249C68.6734 116.344 68.969 116.393 69.2669 116.393C70.1389 116.393 70.9602 115.982 71.4834 115.285L88.1077 93.1189C88.934 92.0168 88.8254 90.4754 87.8529 89.5003Z" fill="#CDCDCD"/>
<path d="M75.6839 83.2881L59.0596 77.7468C57.6083 77.2615 56.0383 78.0447 55.5531 79.4959C55.363 80.0648 55.3625 80.6799 55.5518 81.249L66.6348 114.498C67.0122 115.631 68.0728 116.394 69.2669 116.393H69.4386C70.6903 116.315 71.7338 115.406 71.9821 114.176L77.5235 86.4691C77.8027 85.096 77.013 83.7307 75.6839 83.2881Z" fill="#E3E3E3"/>
<path d="M131.807 6.09001C130.925 5.47257 129.764 5.42296 128.832 5.96247L23.5444 66.9184C22.2207 67.686 21.7697 69.3814 22.5373 70.7051C22.8766 71.2903 23.4182 71.7311 24.0597 71.9444L73.8218 88.5354L112.501 105.115C113.908 105.717 115.536 105.064 116.138 103.657C116.221 103.462 116.282 103.258 116.319 103.048L132.943 8.84393C133.132 7.78335 132.689 6.70901 131.807 6.09001Z" fill="#EFEFEF"/>
<path d="M132.478 9.96949C133.372 8.7276 133.089 6.99608 131.848 6.102C130.741 5.30585 129.22 5.43235 128.261 6.40072L56.0059 82.6066L76.8582 89.8104L132.478 9.96949Z" fill="#E3E3E3"/>
<path d="M6.77039 109.161C6.0745 109.162 5.40407 108.901 4.89184 108.43C3.5102 107.159 2.15064 105.853 0.813424 104.512C-0.270015 103.43 -0.271313 101.675 0.810566 100.591C1.89245 99.5078 3.64761 99.5065 4.73105 100.588C6.01658 101.874 7.32444 103.132 8.64893 104.351C9.77523 105.387 9.84848 107.14 8.81258 108.266C8.2871 108.837 7.54627 109.162 6.77039 109.161Z" fill="#ECECEC"/>
<path d="M44.5184 127.421C41.8486 127.412 39.1864 127.135 36.5719 126.595C35.0617 126.348 34.0375 124.924 34.2845 123.413C34.5313 121.903 35.9558 120.879 37.466 121.126C37.538 121.138 37.6097 121.152 37.6803 121.17C39.9358 121.635 42.2323 121.873 44.535 121.879H44.5516H45.7984C47.2424 121.741 48.5251 122.8 48.663 124.244C48.6726 124.344 48.6763 124.444 48.6745 124.545C48.7306 126.073 47.5375 127.358 46.0091 127.415H44.5628L44.5184 127.421ZM24.6635 122.117C24.2198 122.117 23.7829 122.011 23.3889 121.807C20.6651 120.382 18.0351 118.784 15.5144 117.025C14.2865 116.112 14.0315 114.376 14.9445 113.148C15.816 111.976 17.447 111.682 18.673 112.475C20.9944 114.108 23.4193 115.589 25.9324 116.908C27.2912 117.612 27.8224 119.284 27.1187 120.643C26.6426 121.562 25.6934 122.139 24.6578 122.139L24.6635 122.117Z" fill="#ECECEC"/>
<path d="M58.7654 124.45C57.2352 124.463 55.9847 123.232 55.9723 121.702C55.9632 120.583 56.6279 119.569 57.6573 119.13C59.2524 118.448 60.8016 117.663 62.2955 116.781C63.6322 116.036 65.3195 116.516 66.0643 117.853C66.783 119.143 66.3635 120.77 65.1104 121.552C63.4111 122.557 61.6492 123.451 59.8351 124.229C59.4966 124.373 59.1332 124.448 58.7654 124.45Z" fill="#ECECEC"/>
</svg>
