<svg width="52" height="32" viewBox="0 0 52 32" fill="none" xmlns="http://www.w3.org/2000/svg">
<rect x="0.266667" y="0.266667" width="51.4667" height="31.4667" rx="1.86667" fill="white" stroke="#E9E9E9" stroke-width="0.533333"/>
<path fill-rule="evenodd" clip-rule="evenodd" d="M29.0763 16.4081C29.0763 22.1565 24.3585 26.8159 18.5384 26.8159C12.7181 26.8159 8 22.1565 8 16.4081C8 10.6599 12.7181 6 18.5384 6C24.3585 6 29.0763 10.6599 29.0763 16.4081Z" fill="#CC0000"/>
<path fill-rule="evenodd" clip-rule="evenodd" d="M32.6863 6C29.9628 6 27.4821 7.02027 25.6116 8.69401C25.231 9.03514 24.8758 9.40358 24.5479 9.79586H26.6771C26.9678 10.1455 27.2358 10.5132 27.4804 10.8982H23.7444C23.5209 11.252 23.3177 11.6196 23.1372 12.0006H28.0873C28.2565 12.3573 28.4054 12.7248 28.5336 13.1024H22.6909C22.5693 13.4613 22.4667 13.8291 22.3848 14.2041H28.8394C28.9939 14.9146 29.0762 15.6518 29.0762 16.4081C29.0762 17.5636 28.8855 18.6758 28.5336 19.7145H22.6909C22.8191 20.0918 22.968 20.4597 23.1368 20.817H28.0873C27.9064 21.1969 27.7043 21.5649 27.4794 21.9192H23.7444C23.988 22.3031 24.2565 22.6712 24.5479 23.0204H26.6764C26.3491 23.413 25.9936 23.7814 25.6119 24.1225C27.4823 25.7963 29.9628 26.8159 32.6863 26.8159C38.5063 26.8159 43.2242 22.1565 43.2242 16.4081C43.2242 10.6604 38.5063 6 32.6863 6Z" fill="#FF9900"/>
<path fill-rule="evenodd" clip-rule="evenodd" d="M16.0776 17.5475C15.9575 17.534 15.9046 17.5298 15.8221 17.5298C15.1736 17.5298 14.8457 17.7495 14.8457 18.1836C14.8457 18.4509 15.0058 18.6208 15.2556 18.6208C15.7217 18.6208 16.0576 18.1826 16.0776 17.5475ZM16.9098 19.4606C16.7572 19.4606 15.9615 19.4606 15.9615 19.4606L15.9833 19.0157C15.6942 19.367 15.3084 19.5348 14.7843 19.5348C14.1644 19.5348 13.7393 19.0568 13.7393 18.3622C13.7393 17.3166 14.4785 16.7069 15.7477 16.7069C15.8777 16.7069 16.0439 16.7187 16.2141 16.7399C16.2495 16.5982 16.2588 16.538 16.2588 16.4615C16.2588 16.1773 16.0596 16.0707 15.5252 16.0707C14.9655 16.0651 14.5038 16.2027 14.3141 16.2643C14.3261 16.1929 14.4728 15.2986 14.4728 15.2986C15.0427 15.1331 15.4188 15.0713 15.8419 15.0713C16.8245 15.0713 17.3449 15.5068 17.3438 16.3302C17.3458 16.5511 17.3086 16.8227 17.2512 17.1809C17.1519 17.8026 16.9387 19.1361 16.9098 19.4606Z" fill="#000066"/>
<path fill-rule="evenodd" clip-rule="evenodd" d="M13.2606 19.4605H12.1163L12.7721 15.4024L11.3084 19.4605H10.5289L10.4325 15.4251L9.74368 19.4605H8.67285L9.56732 14.1812H11.2125L11.3119 17.1362L12.3157 14.1812H14.1454L13.2606 19.4605Z" fill="#000066"/>
<path fill-rule="evenodd" clip-rule="evenodd" d="M34.0999 17.5475C33.9798 17.534 33.9275 17.5298 33.8452 17.5298C33.1962 17.5298 32.8687 17.7495 32.8687 18.1836C32.8687 18.4509 33.028 18.6208 33.2785 18.6208C33.7443 18.6208 34.0804 18.1826 34.0999 17.5475ZM34.9325 19.4606C34.7797 19.4606 33.9846 19.4606 33.9846 19.4606L34.0061 19.0157C33.717 19.367 33.3313 19.5348 32.8076 19.5348C32.1869 19.5348 31.7622 19.0568 31.7622 18.3622C31.7622 17.3166 32.5018 16.7069 33.7706 16.7069C33.9005 16.7069 34.0664 16.7187 34.2368 16.7399C34.2722 16.5982 34.2814 16.538 34.2814 16.4615C34.2814 16.1773 34.0822 16.0707 33.5478 16.0707C32.9881 16.0651 32.5266 16.2027 32.3363 16.2643C32.3489 16.1929 32.496 15.2986 32.496 15.2986C33.0655 15.1331 33.4419 15.0713 33.8644 15.0713C34.8476 15.0713 35.3674 15.5068 35.3664 16.3302C35.3684 16.5511 35.3316 16.8227 35.2738 17.1809C35.1749 17.8026 34.9612 19.1361 34.9325 19.4606Z" fill="#000066"/>
<path fill-rule="evenodd" clip-rule="evenodd" d="M21.9941 19.3956C21.6808 19.4929 21.4368 19.535 21.172 19.535C20.5873 19.535 20.2681 19.2031 20.2681 18.5917C20.2599 18.4019 20.3522 17.9027 20.4248 17.4475C20.4911 17.0463 20.9211 14.5176 20.9211 14.5176H22.058L21.9253 15.1674H22.6122L22.4572 16.1994H21.7679C21.6358 17.0157 21.4475 18.0328 21.4453 18.1677C21.4453 18.3891 21.5649 18.4858 21.8372 18.4858C21.9676 18.4858 22.0685 18.4727 22.1456 18.4454L21.9941 19.3956Z" fill="#000066"/>
<path fill-rule="evenodd" clip-rule="evenodd" d="M25.4805 19.3606C25.0898 19.4785 24.7133 19.5361 24.3138 19.5348C23.0406 19.5331 22.377 18.8769 22.377 17.6194C22.377 16.1519 23.2211 15.0713 24.3674 15.0713C25.3048 15.0713 25.9038 15.6762 25.9038 16.6246C25.9038 16.9399 25.8629 17.2472 25.7635 17.6808H23.4989C23.4225 18.3036 23.8258 18.563 24.4878 18.563C24.8943 18.563 25.2617 18.4801 25.6699 18.2931L25.4805 19.3606ZM24.8413 16.8154C24.8478 16.7258 24.9618 16.049 24.3118 16.049C23.95 16.049 23.6908 16.3217 23.5857 16.8154H24.8413Z" fill="#000066"/>
<path fill-rule="evenodd" clip-rule="evenodd" d="M17.5958 16.5246C17.5958 17.0673 17.8622 17.4418 18.4667 17.7232C18.9299 17.9385 19.002 18.0022 19.002 18.1971C19.002 18.4643 18.7975 18.5857 18.345 18.5857C18.0034 18.5857 17.686 18.5328 17.3198 18.4158C17.3198 18.4158 17.1698 19.3626 17.1626 19.4078C17.4226 19.4634 17.6544 19.5152 18.3532 19.5348C19.5602 19.5348 20.1178 19.0808 20.1178 18.0997C20.1178 17.5099 19.8846 17.1636 19.3114 16.9031C18.832 16.6858 18.7765 16.6371 18.7765 16.4368C18.7765 16.2047 18.9668 16.0861 19.3364 16.0861C19.561 16.0861 19.8676 16.1098 20.1586 16.1504L20.3213 15.1547C20.0252 15.1081 19.5759 15.0713 19.3144 15.0713C18.0347 15.0713 17.5916 15.7313 17.5958 16.5246Z" fill="#000066"/>
<path fill-rule="evenodd" clip-rule="evenodd" d="M31.0448 15.1846C31.3625 15.1846 31.6593 15.2661 32.0671 15.4696L32.2545 14.3238C32.0863 14.2587 31.4966 13.877 30.997 13.877C30.2316 13.877 29.5838 14.2526 29.1289 14.8712C28.4648 14.6541 28.1915 15.093 27.8571 15.5305L27.5598 15.5989C27.5823 15.455 27.6028 15.312 27.5963 15.1671H26.5451C26.4019 16.4963 26.1476 17.8421 25.9486 19.1717L25.8965 19.4605H27.0411C27.2321 18.2345 27.3365 17.4498 27.4001 16.9182L27.8311 16.6823C27.8959 16.4453 28.0969 16.3657 28.5013 16.3754C28.4485 16.6553 28.4198 16.9503 28.4198 17.2554C28.4198 18.6602 29.1882 19.5347 30.4193 19.5347C30.7365 19.5347 31.009 19.4936 31.4308 19.3801L31.6313 18.1771C31.2519 18.3612 30.9414 18.4478 30.6597 18.4478C29.9946 18.4478 29.5921 17.9628 29.5921 17.1616C29.5921 15.9989 30.1903 15.1846 31.0448 15.1846Z" fill="#000066"/>
<path fill-rule="evenodd" clip-rule="evenodd" d="M40.7309 14.1812L40.4766 15.7064C40.1643 15.2999 39.8282 15.0055 39.3846 15.0055C38.8074 15.0055 38.282 15.4378 37.9379 16.0743C37.4588 15.9761 36.9637 15.8092 36.9637 15.8092L36.9633 15.8133C37.0015 15.4575 37.0176 15.2411 37.0138 15.167H35.9628C35.8201 16.4962 35.5654 17.842 35.3666 19.1716L35.314 19.4605H36.4589C36.6134 18.4696 36.7315 17.6459 36.8186 16.9936C37.21 16.6442 37.4058 16.3404 37.8003 16.3602C37.6253 16.7783 37.5232 17.2596 37.5232 17.7533C37.5232 18.8262 38.0725 19.5346 38.9045 19.5346C39.3238 19.5346 39.6456 19.3917 39.9593 19.0608L39.9054 19.4601H40.9878L41.8593 14.1812H40.7309ZM39.3002 18.4686C38.9108 18.4686 38.7136 18.1834 38.7136 17.6222C38.7136 16.7783 39.0822 16.1801 39.6009 16.1801C39.9941 16.1801 40.2073 16.4755 40.2073 17.0209C40.2073 17.8721 39.8326 18.4686 39.3002 18.4686Z" fill="#000066"/>
<path fill-rule="evenodd" clip-rule="evenodd" d="M13.5895 19.1475H12.4456L13.1012 15.0894L11.6379 19.1475H10.858L10.7617 15.1129L10.0728 19.1475H9.00195L9.89642 13.8687H11.5416L11.5876 17.1365L12.6977 13.8687H14.4745L13.5895 19.1475Z" fill="white"/>
<path fill-rule="evenodd" clip-rule="evenodd" d="M16.4065 17.2347C16.2866 17.2209 16.2337 17.2171 16.1512 17.2171C15.5027 17.2171 15.1747 17.4365 15.1747 17.8703C15.1747 18.1372 15.3349 18.3081 15.5848 18.3081C16.0508 18.3081 16.3867 17.8699 16.4065 17.2347ZM17.2385 19.1471C17.0862 19.1471 16.2908 19.1471 16.2908 19.1471L16.3124 18.7025C16.0233 19.0537 15.6375 19.2216 15.1134 19.2216C14.4934 19.2216 14.0684 18.743 14.0684 18.0486C14.0684 17.0028 14.8078 16.3939 16.0769 16.3939C16.2067 16.3939 16.3729 16.4056 16.5432 16.4273C16.5786 16.2852 16.5879 16.2248 16.5879 16.148C16.5879 15.8639 16.3887 15.7582 15.8543 15.7582C15.2944 15.7516 14.8329 15.8893 14.6431 15.9506C14.6552 15.8796 14.8018 14.9853 14.8018 14.9853C15.3718 14.8202 15.7479 14.7578 16.171 14.7578C17.1534 14.7578 17.6737 15.1938 17.6729 16.0169C17.6747 16.2375 17.6379 16.5103 17.5803 16.8676C17.4808 17.4888 17.2677 18.8231 17.2385 19.1471Z" fill="white"/>
<path fill-rule="evenodd" clip-rule="evenodd" d="M32.5837 14.0105L32.3963 15.1561C31.9878 14.9533 31.6919 14.8712 31.3744 14.8712C30.5203 14.8712 29.9211 15.6866 29.9211 16.8494C29.9211 17.6506 30.3238 18.1347 30.9889 18.1347C31.2707 18.1347 31.582 18.0487 31.9605 17.8639L31.7595 19.067C31.3383 19.1803 31.0657 19.2217 30.7486 19.2217C29.5167 19.2217 28.7495 18.347 28.7495 16.9425C28.7495 15.0553 29.8102 13.7363 31.3263 13.7363C31.8259 13.7363 32.416 13.9454 32.5837 14.0105Z" fill="white"/>
<path fill-rule="evenodd" clip-rule="evenodd" d="M34.4291 17.2347C34.3099 17.2209 34.2568 17.2171 34.1745 17.2171C33.5263 17.2171 33.1981 17.4365 33.1981 17.8703C33.1981 18.1372 33.3581 18.3081 33.6079 18.3081C34.0737 18.3081 34.41 17.8699 34.4291 17.2347ZM35.2618 19.1471C35.1096 19.1471 34.314 19.1471 34.314 19.1471L34.3355 18.7025C34.0464 19.0537 33.6606 19.2216 33.137 19.2216C32.5163 19.2216 32.0918 18.743 32.0918 18.0486C32.0918 17.0028 32.8305 16.3939 34.1001 16.3939C34.2298 16.3939 34.3957 16.4056 34.5659 16.4273C34.6013 16.2852 34.6107 16.2248 34.6107 16.148C34.6107 15.8639 34.412 15.7582 33.8772 15.7582C33.3178 15.7516 32.8565 15.8893 32.6663 15.9506C32.6783 15.8796 32.8251 14.9853 32.8251 14.9853C33.3951 14.8202 33.7708 14.7578 34.194 14.7578C35.1764 14.7578 35.6971 15.1938 35.6958 16.0169C35.6981 16.2375 35.661 16.5103 35.6034 16.8676C35.5043 17.4888 35.2911 18.8231 35.2618 19.1471Z" fill="white"/>
<path fill-rule="evenodd" clip-rule="evenodd" d="M22.3231 19.0822C22.0102 19.1796 21.7659 19.2219 21.5015 19.2219C20.9166 19.2219 20.5972 18.8898 20.5972 18.2791C20.5892 18.0886 20.6816 17.5902 20.7544 17.1345C20.8202 16.733 21.2503 14.2046 21.2503 14.2046H22.3876L22.2545 14.8543H22.8384L22.6829 15.8859H22.0972C21.9651 16.703 21.7767 17.7195 21.7744 17.8544C21.7744 18.0764 21.8945 18.1725 22.1664 18.1725C22.2968 18.1725 22.3976 18.1598 22.475 18.1319L22.3231 19.0822Z" fill="white"/>
<path fill-rule="evenodd" clip-rule="evenodd" d="M25.8103 19.0479C25.4194 19.1662 25.042 19.222 24.643 19.2216C23.3697 19.2208 22.7065 18.5637 22.7065 17.3064C22.7065 15.8384 23.5505 14.7578 24.696 14.7578C25.6344 14.7578 26.2331 15.3628 26.2331 16.3123C26.2331 16.627 26.1915 16.934 26.0932 17.3678H23.8283C23.7516 17.9907 24.1554 18.2505 24.8167 18.2505C25.2236 18.2505 25.5908 18.1673 25.9995 17.9798L25.8103 19.0479ZM25.1709 16.502C25.1771 16.4121 25.2915 15.7356 24.6417 15.7356C24.2796 15.7356 24.0203 16.0088 23.9149 16.502H25.1709Z" fill="white"/>
<path fill-rule="evenodd" clip-rule="evenodd" d="M17.925 16.2112C17.925 16.7548 18.1918 17.1285 18.7965 17.4102C19.2596 17.6254 19.3314 17.689 19.3314 17.8841C19.3314 18.1517 19.1271 18.2724 18.6743 18.2724C18.333 18.2724 18.0154 18.2201 17.6491 18.1035C17.6491 18.1035 17.4992 19.0496 17.4922 19.0942C17.752 19.1504 17.984 19.2017 18.6824 19.2216C19.8898 19.2216 20.4474 18.7678 20.4474 17.7867C20.4474 17.1966 20.2139 16.8505 19.6408 16.5906C19.1612 16.3727 19.1061 16.3245 19.1061 16.1238C19.1061 15.8917 19.2963 15.7723 19.6661 15.7723C19.8903 15.7723 20.1972 15.797 20.488 15.8375L20.6509 14.8419C20.3546 14.7956 19.9056 14.7578 19.644 14.7578C18.364 14.7578 17.9212 15.418 17.925 16.2112Z" fill="white"/>
<path fill-rule="evenodd" clip-rule="evenodd" d="M41.3168 19.1475H40.2347L40.2883 18.7479C39.9744 19.079 39.6528 19.222 39.2335 19.222C38.4021 19.222 37.8521 18.5144 37.8521 17.4403C37.8521 16.0123 38.7049 14.8087 39.7136 14.8087C40.1572 14.8087 40.4931 14.9876 40.8061 15.3942L41.0599 13.8687H42.1881L41.3168 19.1475ZM39.629 18.1555C40.1621 18.1555 40.5361 17.5592 40.5361 16.7089C40.5361 16.1633 40.3231 15.8669 39.9299 15.8669C39.411 15.8669 39.0426 16.4653 39.0426 17.3096C39.0426 17.8714 39.24 18.1555 39.629 18.1555Z" fill="white"/>
<path fill-rule="evenodd" clip-rule="evenodd" d="M36.2922 14.8542C36.1492 16.183 35.8947 17.5288 35.6957 18.8586L35.6436 19.1473H36.7878C37.1972 16.5219 37.2956 16.0095 37.9378 16.0735C38.0398 15.5361 38.2302 15.0656 38.3719 14.8284C37.8928 14.7297 37.6252 14.9971 37.2744 15.5054C37.3024 15.2855 37.3529 15.0721 37.3434 14.8542H36.2922Z" fill="white"/>
<path fill-rule="evenodd" clip-rule="evenodd" d="M26.8747 14.8542C26.731 16.183 26.4762 17.5288 26.2775 18.8586L26.2256 19.1473H27.3702C27.7797 16.5219 27.8778 16.0095 28.5189 16.0735C28.6217 15.5361 28.8124 15.0656 28.9538 14.8284C28.4752 14.7297 28.207 14.9971 27.857 15.5054C27.8846 15.2855 27.9354 15.0721 27.9254 14.8542H26.8747Z" fill="white"/>
</svg>
