<svg width="16" height="17" viewBox="0 0 16 17" fill="none" xmlns="http://www.w3.org/2000/svg">
<path d="M7.70833 5.81265e-09C8.40012 -4.52889e-05 9.06569 0.264628 9.56853 0.739726C10.0714 1.21482 10.3733 1.86433 10.4125 2.555L10.4167 2.70833H14.7917C14.95 2.70838 15.1025 2.76854 15.2182 2.87664C15.3339 2.98475 15.4042 3.13275 15.415 3.29073C15.4258 3.44872 15.3762 3.60491 15.2763 3.72775C15.1764 3.85059 15.0335 3.93092 14.8767 3.9525L14.7917 3.95833H14.1283L13.0617 14.8083C13.0082 15.3493 12.7643 15.8536 12.3733 16.2312C11.9824 16.6089 11.4699 16.8353 10.9275 16.87L10.7808 16.875H4.63583C4.09205 16.875 3.56599 16.6816 3.15167 16.3294C2.73735 15.9772 2.46177 15.4892 2.37417 14.9525L2.355 14.8075L1.2875 3.95833H0.625C0.473969 3.95833 0.328048 3.90363 0.214224 3.80436C0.100401 3.70509 0.0263736 3.56796 0.00583331 3.41833L0 3.33333C6.36908e-06 3.1823 0.0547022 3.03638 0.153973 2.92256C0.253243 2.80873 0.390372 2.73471 0.54 2.71417L0.625 2.70833H5C5 1.99004 5.28534 1.30116 5.79325 0.793252C6.30116 0.285341 6.99004 5.81265e-09 7.70833 5.81265e-09ZM12.8725 3.95833H2.54333L3.59917 14.685C3.62255 14.9243 3.72802 15.1482 3.89769 15.3187C4.06735 15.4891 4.29076 15.5956 4.53 15.62L4.63583 15.625H10.7808C11.2808 15.625 11.705 15.2708 11.8017 14.79L11.8183 14.685L12.8717 3.95833H12.8725ZM9.16667 6.25C9.3177 6.25001 9.46362 6.3047 9.57744 6.40397C9.69127 6.50324 9.76529 6.64037 9.78583 6.79L9.79167 6.875V12.7083C9.79162 12.8667 9.73146 13.0191 9.62336 13.1348C9.51525 13.2505 9.36725 13.3209 9.20927 13.3317C9.05128 13.3425 8.89509 13.2929 8.77225 13.193C8.64941 13.093 8.56909 12.9502 8.5475 12.7933L8.54167 12.7083V6.875C8.54167 6.70924 8.60752 6.55027 8.72473 6.43306C8.84194 6.31585 9.00091 6.25 9.16667 6.25ZM6.25 6.25C6.40103 6.25001 6.54695 6.3047 6.66078 6.40397C6.7746 6.50324 6.84863 6.64037 6.86917 6.79L6.875 6.875V12.7083C6.87495 12.8667 6.8148 13.0191 6.70669 13.1348C6.59858 13.2505 6.45058 13.3209 6.2926 13.3317C6.13462 13.3425 5.97842 13.2929 5.85558 13.193C5.73275 13.093 5.65242 12.9502 5.63083 12.7933L5.625 12.7083V6.875C5.625 6.70924 5.69085 6.55027 5.80806 6.43306C5.92527 6.31585 6.08424 6.25 6.25 6.25ZM7.70833 1.25C7.34234 1.25001 6.98974 1.38764 6.72051 1.63557C6.45128 1.88349 6.28512 2.22358 6.255 2.58833L6.25 2.70833H9.16667C9.16667 2.32156 9.01302 1.95063 8.73953 1.67714C8.46604 1.40365 8.09511 1.25 7.70833 1.25Z" fill="#5D5B5E"/>
</svg>
