<svg width="52" height="32" viewBox="0 0 52 32" fill="none" xmlns="http://www.w3.org/2000/svg">
<rect x="0.266667" y="0.266667" width="51.4667" height="31.4667" rx="1.86667" fill="white" stroke="#E9E9E9" stroke-width="0.533333"/>
<path fill-rule="evenodd" clip-rule="evenodd" d="M20.5508 21.3501L22.2111 11.1772H24.8652L23.205 21.3501H20.5508Z" fill="#26337A"/>
<path fill-rule="evenodd" clip-rule="evenodd" d="M32.8319 11.4268C32.3071 11.2226 31.4818 11 30.4537 11C27.8297 11 25.9827 12.3805 25.9673 14.3573C25.9506 15.8195 27.2854 16.635 28.2916 17.121C29.3258 17.6192 29.6733 17.938 29.6692 18.3834C29.6621 19.0648 28.8437 19.3769 28.0806 19.3769C27.0181 19.3769 26.4535 19.2232 25.5807 18.8435L25.2393 18.6815L24.8682 20.9586C25.487 21.242 26.6343 21.4879 27.825 21.5008C30.6137 21.5008 32.4257 20.137 32.4469 18.026C32.4565 16.8665 31.7493 15.9876 30.2177 15.262C29.2902 14.7903 28.7209 14.4778 28.7275 14.0003C28.7281 13.5776 29.2084 13.1249 30.2479 13.1249C31.116 13.1111 31.7444 13.3091 32.2341 13.5158L32.4724 13.6321L32.8319 11.4268Z" fill="#26337A"/>
<path fill-rule="evenodd" clip-rule="evenodd" d="M36.3661 17.7433C36.5861 17.1586 37.4234 14.8998 37.4234 14.8998C37.4079 14.9267 37.6421 14.3106 37.7762 13.9293L37.9553 14.8067C37.9553 14.8067 38.4646 17.2347 38.5695 17.7433C38.1563 17.7433 36.8844 17.7433 36.3661 17.7433ZM39.6404 11.1875H37.5893C36.9531 11.1875 36.477 11.3675 36.1983 12.0308L32.2568 21.3536H35.0444C35.0444 21.3536 35.4992 20.0994 35.6024 19.8242C35.9065 19.8242 38.6152 19.8295 39.0018 19.8295C39.0813 20.1845 39.325 21.3536 39.325 21.3536H41.7883L39.6404 11.1875Z" fill="#26337A"/>
<path fill-rule="evenodd" clip-rule="evenodd" d="M18.3245 11.1855L15.7267 18.121L15.4485 16.7112C14.9644 15.0868 13.4575 13.3262 11.772 12.4441L14.1485 21.341L16.9574 21.3393L21.137 11.1855H18.3245Z" fill="#26337A"/>
<path fill-rule="evenodd" clip-rule="evenodd" d="M13.3151 11.1787H9.03522L9 11.3895C12.3303 12.2322 14.5338 14.2662 15.4483 16.7113L14.5183 12.037C14.3578 11.3923 13.8915 11.2012 13.3151 11.1787Z" fill="#EC982D"/>
</svg>
